<?xml version="1.0" encoding="UTF-8" standalone="no"?>
<svg width="70px" height="64px" viewBox="0 0 70 64" version="1.1" xmlns="http://www.w3.org/2000/svg" xmlns:xlink="http://www.w3.org/1999/xlink" xmlns:sketch="http://www.bohemiancoding.com/sketch/ns">
    <!-- Generator: Sketch Beta 3.4 (15569) - http://www.bohemiancoding.com/sketch -->
    <title>N</title>
    <desc>Created with Sketch Beta.</desc>
    <defs></defs>
    <g id="Page-1" stroke="none" stroke-width="1" fill="none" fill-rule="evenodd" sketch:type="MSPage">
        <g id="Artboard-3-Copy-2" sketch:type="MSArtboardGroup" transform="translate(-643.000000, -254.000000)" fill="#FFFFFF">
            <path d="M682.938889,318 L698.138889,318 L706.538889,258.1 C706.638889,257.2 707.238889,256.8 708.238889,256.8 L711.838889,256.8 L712.138889,254.3 L696.438889,254.3 L696.138889,256.8 L702.638889,256.8 C703.638889,256.8 704.038889,257.2 703.938889,258.1 L698.438889,297.2 L677.238889,254.3 L651.538889,254.3 L651.338889,255.7 C653.338889,255.7 654.538889,257.1 655.438889,259.4 L656.238889,261.2 L648.838889,314.2 C648.738889,315.1 648.138889,315.5 647.138889,315.5 L643.438889,315.5 L643.138889,318 L658.938889,318 L659.238889,315.5 L652.738889,315.5 C651.738889,315.5 651.338889,315.1 651.438889,314.2 L658.238889,265.5 L682.938889,318 Z" id="N" sketch:type="MSShapeGroup"></path>
        </g>
    </g>
</svg>